<svg id="Layer_1" data-name="Layer 1" xmlns="http://www.w3.org/2000/svg" viewBox="0 0 83.21 79.74"><title>legend</title><rect x="62.85" y="58.3" width="2.87" height="15.15"/><polygon points="0 65.29 22.11 53.84 22.11 0.2 0 11.48 0 65.29"/><path d="M72.27,40.27V0L49.75,11.53V44.25A22.15,22.15,0,0,1,72.27,40.27Z"/><path d="M46.47,47.81V11.4L25.39.23V53.84l17,9.1c-.06-.67-.15-1.35-.15-2A22.3,22.3,0,0,1,46.47,47.81Z"/><path d="M64.37,42.07A18.84,18.84,0,1,0,83.21,60.9,18.84,18.84,0,0,0,64.37,42.07Zm4.63,33a1.64,1.64,0,0,1-1.64,1.64H61.22a1.63,1.63,0,0,1-1.64-1.64V56.66A1.63,1.63,0,0,1,61.22,55h6.14A1.64,1.64,0,0,1,69,56.66ZM64.37,54.32a4.71,4.71,0,1,1,4.71-4.71h0A4.72,4.72,0,0,1,64.37,54.32Z"/><circle cx="64.37" cy="49.61" r="1.43"/></svg>