<svg id="Layer_1" data-name="Layer 1" xmlns="http://www.w3.org/2000/svg" viewBox="0 0 359.4 317.6"><defs><style>.cls-1,.cls-2{fill:#fff;}.cls-2{stroke:#000405;stroke-miterlimit:10;stroke-width:5px;}</style></defs><title>legend2</title><polygon points="108.3 317.6 0 279.8 74.3 121.1 136 132.3 108.3 317.6"/><polygon points="108.3 317.6 222.7 279.6 201.1 121.1 136 132.3 108.3 317.6"/><polygon points="359.4 317.6 222.7 279.6 201.1 121.1 269.5 132.3 359.4 317.6"/><polygon class="cls-1" points="250.6 149 203.7 140.4 218.9 252.1 306.6 275.6 250.6 149"/><polygon class="cls-1" points="84.5 142.9 29.5 263.3 111.8 288.8 132.8 151.6 84.5 142.9"/><polygon class="cls-2" points="203.7 140.4 132.8 151.6 111.8 288.8 218.9 252.1 203.7 140.4"/><path d="M256.4,81.5c0,45-81.5,143.3-81.5,143.3S93.4,126.5,93.4,81.5a81.5,81.5,0,1,1,163,0Z"/><circle class="cls-1" cx="174.8" cy="74.8" r="41.3"/></svg>